<?xml version="1.0" encoding="UTF-8"?><svg id="b" xmlns="http://www.w3.org/2000/svg" viewBox="0 0 16 16"><g id="c"><g id="d"><rect x=".5" y=".5" width="15" height="15" rx="3.36" ry="3.36"/><path d="M12.14,1c1.58,0,2.86,1.28,2.86,2.86v8.28c0,1.58-1.28,2.86-2.86,2.86H3.86c-1.58,0-2.86-1.28-2.86-2.86V3.86c0-1.58,1.28-2.86,2.86-2.86h8.28M12.14,0H3.86C1.73,0,0,1.73,0,3.86v8.28c0,2.13,1.73,3.86,3.86,3.86h8.28c2.13,0,3.86-1.73,3.86-3.86V3.86c0-2.13-1.73-3.86-3.86-3.86h0Z"/></g><path d="M8.59,3.72c1.96,0,3.56,1.6,3.56,3.56s-1.6,3.56-3.56,3.56-3.56-1.6-3.56-3.56,1.6-3.56,3.56-3.56M8.59,2.72c-2.52,0-4.56,2.04-4.56,4.56s2.04,4.56,4.56,4.56,4.56-2.04,4.56-4.56-2.04-4.56-4.56-4.56h0Z" fill="#fff"/><line x1="5.48" y1="10.65" x2="2.86" y2="13.28" fill="none" stroke="#fff" stroke-linecap="round" stroke-linejoin="round" stroke-width="2"/><path d="M12.84,6.91c-.25-.27-.77-.78-1.48-1.22-.71-.44-1.66-.84-2.77-.84s-2.06.4-2.77.84c-.71.44-1.23.95-1.48,1.22-.2.22-.2.51,0,.73.25.27.77.78,1.48,1.22.71.44,1.66.84,2.77.84s2.06-.4,2.77-.84c.71-.44,1.23-.95,1.48-1.22.2-.22.2-.51,0-.73ZM12.14,7.31c-.23.25-.7.71-1.33,1.1-.63.39-1.39.69-2.22.69s-1.59-.3-2.22-.69c-.63-.39-1.1-.85-1.33-1.1-.02-.02-.02-.04,0-.05.23-.25.7-.71,1.33-1.1.63-.39,1.39-.69,2.22-.69s1.58.3,2.22.69c.63.39,1.1.85,1.33,1.1.02.02.02.04,0,.05Z" fill="#fff"/><path d="M8.59,8.36c-.59.01-1.09-.46-1.1-1.05-.01-.59.46-1.09,1.05-1.1.02,0,.03,0,.05,0,.59.01,1.07.51,1.05,1.1-.01.58-.48,1.04-1.05,1.05Z" fill="#5bc3f5"/></g></svg>