<?xml version="1.0" encoding="UTF-8"?><svg id="b" xmlns="http://www.w3.org/2000/svg" viewBox="0 0 104.01 28.13"><g id="c"><path d="M9.69,2.13c4.17,0,7.57,3.39,7.57,7.57s-3.39,7.57-7.57,7.57-7.57-3.39-7.57-7.57,3.39-7.57,7.57-7.57M9.69,0C4.34,0,0,4.34,0,9.69s4.34,9.69,9.69,9.69,9.69-4.34,9.69-9.69S15.05,0,9.69,0h0Z"/><path d="M3.41,27.98c-.51.2-1.09.2-1.63-.04-1.08-.47-1.56-1.73-1.09-2.8l3.18-7.23c.47-1.08,1.73-1.56,2.8-1.09s1.56,1.73,1.09,2.8l-3.18,7.23c-.24.54-.67.93-1.18,1.13Z"/><path d="M18.74,8.92c-.54-.58-1.63-1.66-3.15-2.6-1.51-.93-3.53-1.79-5.89-1.79s-4.38.85-5.89,1.79c-1.52.94-2.61,2.02-3.15,2.6-.43.47-.43,1.08,0,1.55.54.58,1.63,1.66,3.15,2.6,1.51.93,3.53,1.79,5.89,1.79s4.38-.85,5.89-1.79c1.52-.94,2.61-2.02,3.15-2.6.43-.47.43-1.08,0-1.55ZM17.24,9.75c-.49.53-1.48,1.5-2.83,2.34-1.35.84-2.96,1.47-4.72,1.47s-3.37-.64-4.72-1.47c-1.34-.83-2.33-1.8-2.83-2.34-.03-.04-.03-.08,0-.12.49-.53,1.48-1.5,2.83-2.34,1.35-.84,2.96-1.47,4.72-1.47s3.37.64,4.72,1.47c1.34.83,2.33,1.8,2.83,2.34.03.04.03.08,0,.12Z"/><path d="M9.69,11.99c-1.27.03-2.31-.97-2.34-2.24-.03-1.27.97-2.31,2.24-2.34.03,0,.07,0,.1,0,1.27.03,2.27,1.08,2.24,2.34-.03,1.23-1.01,2.21-2.24,2.24Z" fill="#5bc3f5"/><text transform="translate(20.96 16.17)" font-family="SofiaPro-Black, &apos;Sofia Pro&apos;" font-size="18" font-weight="800"><tspan x="0" y="0" letter-spacing="0em">S</tspan><tspan x="10.44" y="0">i</tspan><tspan x="15.34" y="0" letter-spacing="-.01em">t</tspan><tspan x="21.89" y="0" letter-spacing="0em">e Glass</tspan></text></g></svg>